<svg id="Layer_1" data-name="Layer 1" xmlns="http://www.w3.org/2000/svg" xmlns:xlink="http://www.w3.org/1999/xlink" viewBox="0 0 642.53 111.77"><defs><style>.cls-1{fill:none;}.cls-2{clip-path:url(#clip-path);}.cls-3{fill:#f29d3c;}.cls-4{fill:#1484c5;}.cls-5{fill:#f13249;}</style><clipPath id="clip-path"><path class="cls-1" d="M47.69,99.41H16.84A16.82,16.82,0,0,1,2.28,74.18L17.7,47.49,33.13,20.77a16.82,16.82,0,0,1,29.13,0L77.68,47.48,93.1,74.18A16.82,16.82,0,0,1,78.54,99.41H47.69Z"/></clipPath></defs><title>Artifakt Logo</title><g class="cls-2"><polygon class="cls-3" points="47.98 99.41 -12.01 99.74 17.7 47.66 47.4 -4.44 77.68 47.32 107.96 99.08 47.98 99.41"/><polygon class="cls-4" points="25.39 99.53 -12.01 99.74 6.51 67.31 25.04 34.85 43.92 67.09 62.8 99.33 25.39 99.53"/><polygon class="cls-5" points="70.56 99.28 33.16 99.49 51.68 67.06 70.2 34.6 89.08 66.84 107.96 99.08 70.56 99.28"/></g><path d="M225.44,88H178.23l-10,22.67H149L201.36,0h0.94l52.37,110.68H235.44Zm-6.25-14.23L201.83,34.08,184.48,73.79h34.71Z"/><path d="M290.33,29.08V45a48.43,48.43,0,0,0-6.88-.31c-14.69,0-27.2,10.47-29.08,27.67v22.3l-17.2-37V29.39h17.2V54.87c1.72-14.07,11.88-26.26,29.23-26.26A42.48,42.48,0,0,1,290.33,29.08Z"/><path d="M325.32,43.46V89c0,4.38,1.56,7.82,6.57,7.82a25.82,25.82,0,0,0,10.63-2.19V108.8c-3.44,1.72-8,2.81-15,2.81-10.16,0-19.38-4.06-19.38-22V43.46H297.49V29.39h10.63V15.32h17.2V29.39h17.2V43.46h-17.2Z"/><path d="M370.1,15.63H352.59V1.25H370.1V15.63Zm0,95H352.59V29.39H370.1v81.29Z"/><path d="M405.4,26.42v3h20.95V43.46H405.4v67.22H388.2V43.46h-9.38V29.39h9.38V26.11C388.2,3.6,404.3,0,414.46,0a40.5,40.5,0,0,1,19.07,4.85l-5.78,12a31.36,31.36,0,0,0-12.35-2.66C407.43,14.23,405.4,19.85,405.4,26.42Z"/><path d="M490.41,42.05V29.39h17.2v81.29h-17.2V97.24c-2,6.57-11.72,14.54-24.86,14.54-17.2,0-38.46-13.44-38.46-41.74,0-27.83,21.26-41.58,38.46-41.58C478.69,28.45,488.22,35.33,490.41,42.05ZM444.3,70c0,17.67,12.66,26.89,23.92,26.89,11.1,0,23-7.82,23-26.89,0-19.23-11.88-26.73-23-26.73C457,43.3,444.3,52.53,444.3,70Z"/><path d="M546.85,76.13l-9.07,9.38v25.17h-17.2V1.25h17.2V64.72l33.3-35.33h20.63L557.64,64.88l41.27,45.8H578.74Z"/><path d="M625.34,43.46V89c0,4.38,1.56,7.82,6.57,7.82a25.82,25.82,0,0,0,10.63-2.19V108.8c-3.44,1.72-8,2.81-15,2.81-10.16,0-19.38-4.06-19.38-22V43.46H597.51V29.39h10.63V15.32h17.2V29.39h17.2V43.46h-17.2Z"/></svg>